HIERARCHY
ROOT hip
{
	OFFSET 0.000000 0.000000 0.000000 
	CHANNELS 6 Xposition Yposition Zposition Xrotation Zrotation Yrotation
	JOINT abdomen
	{
		OFFSET 0.000000 3.402643 0.000000 
		CHANNELS 3 Xrotation Zrotation Yrotation
		JOINT chest
		{
			OFFSET 0.000000 8.438565 -0.680529 
			CHANNELS 3 Xrotation Zrotation Yrotation
			JOINT neck
			{
				OFFSET 0.000000 10.207942 -0.272212 
				CHANNELS 3 Xrotation Zrotation Yrotation
				JOINT head
				{
					OFFSET 0.000000 3.130431 0.000000 
					CHANNELS 3 Xrotation Zrotation Yrotation
					End Site
					{
						OFFSET 0.000000 3.130435 0.000000 
					}
				}
			}
			JOINT lCollar
			{
				OFFSET 3.470700 6.669187 -0.816635 
				CHANNELS 3 Yrotation Zrotation Xrotation
				JOINT lShldr
				{
					OFFSET 3.198488 0.000000 0.000000 
					CHANNELS 3 Zrotation Yrotation Xrotation
					JOINT lForeArm
					{
						OFFSET 10.139888 0.000000 0.000000 
						CHANNELS 3 Yrotation Zrotation Xrotation
						JOINT lHand
						{
							OFFSET 8.370511 0.000000 0.000000 
							CHANNELS 3 Zrotation Yrotation Xrotation
							End Site
							{
								OFFSET 4.083176 0.000000 0.000000 
							}
						}
					}
				}
			}
			JOINT rCollar
			{
				OFFSET -3.470700 6.669187 -0.816635 
				CHANNELS 3 Yrotation Zrotation Xrotation
				JOINT rShldr
				{
					OFFSET -3.198488 0.000000 0.000000 
					CHANNELS 3 Zrotation Yrotation Xrotation
					JOINT rForeArm
					{
						OFFSET -10.139888 0.000000 0.000000 
						CHANNELS 3 Yrotation Zrotation Xrotation
						JOINT rHand
						{
							OFFSET -8.370511 0.000000 0.000000 
							CHANNELS 3 Zrotation Yrotation Xrotation
							End Site
							{
								OFFSET -4.083176 0.000000 0.000000 
							}
						}
					}
				}
			}
		}
	}
	JOINT lThigh
	{
		OFFSET 5.308129 -1.633274 1.361059 
		CHANNELS 3 Xrotation Zrotation Yrotation
		JOINT lShin
		{
			OFFSET -2.041588 -20.007561 0.000000 
			CHANNELS 3 Xrotation Zrotation Yrotation
			JOINT lFoot
			{
				OFFSET 0.000000 -19.190928 -1.224953 
				CHANNELS 3 Xrotation Yrotation Zrotation
				End Site
				{
					OFFSET 0.000000 -2.449906 4.627600 
				}
			}
		}
	}
	JOINT rThigh
	{
		OFFSET -5.308129 -1.633274 1.361059 
		CHANNELS 3 Xrotation Zrotation Yrotation
		JOINT rShin
		{
			OFFSET 2.041588 -20.007561 0.000000 
			CHANNELS 3 Xrotation Zrotation Yrotation
			JOINT rFoot
			{
				OFFSET 0.000000 -19.190928 -1.224953 
				CHANNELS 3 Xrotation Yrotation Zrotation
				End Site
				{
					OFFSET 0.000000 -2.449906 4.627600 
				}
			}
		}
	}
}
MOTION
Frames: 19
Frame Time: 0.011111
-8.345735 52.205505 20.489836 -176.395737 177.924835 1.853164 37.744556 -2.233895 0.160751 -33.415833 7.954186 -0.410463 -10.329404 1.924433 5.472514 35.939083 -11.106427 4.242950 2.656661 -4.973740 1.830115 -67.286179 -18.623602 15.015386 -65.588615 9.444666 14.958442 8.524705 12.647240 -37.239632 -4.438679 -1.473473 2.444106 43.380783 26.575108 -74.071587 77.582253 -7.482121 21.057152 -8.534408 -12.637552 121.566277 3.153232 6.383374 -4.731382 23.670900 -5.645291 -4.015670 -21.395905 2.206291 -1.766460 3.456539 -8.015126 2.465483 24.606440 5.580922 4.126279 -26.057747 -9.851684 -2.073747 
-8.348188 52.201519 20.478493 -176.356781 178.056335 1.748416 37.799786 -2.413357 0.012536 -33.388077 8.028961 -0.431610 -11.049475 1.698607 5.115927 36.949715 -10.913371 3.293999 2.656661 -4.973740 1.830115 -67.412987 -18.552855 14.911837 -65.481300 9.444724 14.908860 8.524705 12.647240 -37.249405 -4.438679 -1.473473 2.444106 43.411575 26.603949 -73.815804 77.523560 -7.502592 21.020691 -8.534408 -12.637552 121.341660 3.319271 6.226804 -4.708955 23.580877 -5.644967 -3.997986 -21.402685 2.262426 -1.754331 3.377869 -8.168715 2.441237 24.756500 5.577332 4.168791 -26.125364 -9.895930 -2.110870 
-8.350946 52.196617 20.484318 -176.298233 178.095840 1.728385 37.959858 -2.473957 -0.154402 -33.310513 8.081122 -0.461056 -11.634354 1.299143 4.749569 37.661442 -10.401722 2.443453 2.656661 -4.973740 1.830115 -67.473183 -18.600563 14.894092 -65.428421 9.446332 14.882807 8.524705 12.647240 -37.171280 -4.438679 -1.473473 2.444106 43.486389 26.827473 -73.670296 77.466003 -7.524987 20.993694 -8.534408 -12.637552 120.960793 3.396681 6.177812 -4.665488 23.580580 -5.644908 -4.007691 -21.394045 2.240974 -1.756371 3.395927 -8.224648 2.426043 24.808317 5.570508 4.162021 -26.195324 -9.803422 -2.090030 
-8.354933 52.193550 20.495661 -176.239655 178.161987 1.667372 38.120712 -2.567278 -0.319984 -33.331352 8.122962 -0.503611 -11.628473 0.992347 4.284099 37.614090 -10.105940 1.420508 2.656661 -4.973740 1.830115 -67.489861 -18.453741 14.930664 -65.481300 9.444724 14.908860 8.524705 12.647240 -37.034561 -4.438679 -1.473473 2.444106 43.618446 26.874311 -73.427826 77.444679 -7.529088 20.972191 -8.534408 -12.637552 120.755722 3.456671 6.092514 -4.694314 23.620394 -5.645153 -4.020968 -21.431063 2.276050 -1.722985 3.398584 -8.310246 2.466609 24.846048 5.580193 4.177173 -26.186079 -9.732601 -2.064183 
-8.355240 52.191093 20.512522 -176.180420 177.988297 1.534170 38.263401 -2.434818 -0.261078 -33.341450 8.132442 -0.506939 -11.544434 0.531004 3.819023 37.456787 -9.703957 0.431567 2.656661 -4.973740 1.830115 -67.546585 -18.335463 14.961765 -65.451157 9.449252 14.895154 8.524705 12.647240 -36.907600 -4.438679 -1.473473 2.444106 43.719318 26.872776 -73.128639 77.424591 -7.535285 20.960148 -8.534408 -12.637552 120.599464 3.436649 6.267788 -4.589230 23.700384 -5.645381 -4.037755 -21.466293 2.342560 -1.692764 3.425483 -8.109047 2.634328 24.866398 5.580150 4.169205 -26.156912 -9.794416 -2.079812 
-8.353093 52.186802 20.528772 -176.189850 177.895798 1.471469 38.301273 -2.363748 -0.294548 -33.144798 8.157100 -0.513779 -11.799551 0.239709 3.395144 37.505058 -9.463619 -0.462314 2.656661 -4.973740 1.830115 -67.608414 -18.461273 14.947092 -65.417923 9.446264 14.872074 8.524705 12.647240 -36.917374 -4.438679 -1.473473 2.444106 43.806644 27.213284 -73.295006 77.405762 -7.543587 20.957550 -8.534408 -12.637552 119.925636 3.358066 6.373904 -4.558397 23.752977 -5.634652 -4.040991 -21.484049 2.377171 -1.705321 3.405618 -8.000994 2.693514 24.838306 5.570744 4.164695 -26.090567 -9.813555 -2.062328 
-8.348801 52.183125 20.530001 -176.219116 177.893112 1.441160 38.254765 -2.378135 -0.435573 -32.930164 8.254960 -0.551876 -11.529058 -0.275317 2.956347 36.894619 -8.986567 -1.297136 2.656661 -4.973740 1.830115 -67.707451 -18.478941 14.862172 -65.472275 9.448728 14.906886 8.524705 12.647240 -37.034561 -4.438679 -1.473473 2.444106 43.784359 27.623844 -73.712273 77.358078 -7.562236 20.931723 -8.534408 -12.637552 119.056496 3.299379 6.363927 -4.587783 23.823513 -5.634952 -4.037478 -21.494417 2.364348 -1.690125 3.385327 -8.008406 2.613626 24.818306 5.570608 4.162917 -25.970730 -9.732533 -2.018409 
-8.357385 52.179749 20.523254 -176.209259 177.881027 1.403189 38.253815 -2.308069 -0.526615 -32.871361 8.269077 -0.575956 -11.217621 -0.717117 2.567355 36.320236 -8.475254 -1.986407 2.656661 -4.973740 1.830115 -67.802582 -18.311087 14.832784 -65.567375 9.445894 14.956439 8.524705 12.647240 -37.122444 -4.438679 -1.473473 2.444106 43.745487 27.702578 -73.792862 77.278755 -7.587995 20.883272 -8.534408 -12.637552 118.636574 3.350242 6.356759 -4.667481 23.813799 -5.630599 -4.055194 -21.589119 2.418458 -1.678106 3.397371 -8.042272 2.462726 24.856091 5.580020 4.178016 -25.927753 -9.612993 -1.945665 
-8.367196 52.175770 20.521107 -176.209412 177.948593 1.388918 38.343395 -2.325732 -0.643519 -32.773304 8.293244 -0.594825 -11.481643 -1.186873 2.213075 36.358162 -7.919822 -2.675042 2.656661 -4.973740 1.830115 -67.872231 -18.339069 14.818396 -65.556877 9.445871 14.945695 8.524705 12.647240 -37.278694 -4.438679 -1.473473 2.444106 43.797897 27.799444 -73.711639 77.249763 -7.598830 20.869789 -8.534408 -12.637552 118.441269 3.397849 6.247344 -4.767944 23.823507 -5.634979 -4.037484 -21.654119 2.470111 -1.633796 3.359066 -8.172432 2.263154 24.908379 5.570835 4.170845 -25.822849 -9.388441 -1.829621 
-8.367503 52.170246 20.532145 -176.229156 178.035828 1.382430 38.493214 -2.412871 -0.733219 -32.734261 8.310977 -0.602469 -11.687119 -1.640755 1.866378 36.275234 -7.383041 -3.308163 2.656661 -4.973740 1.830115 -67.873260 -18.387888 14.925815 -65.535767 9.446448 14.932349 8.524705 12.647240 -37.395885 -4.438679 -1.473473 2.444106 43.898327 27.768591 -73.642334 77.268692 -7.590680 20.872381 -8.534408 -12.637552 118.324081 3.356927 6.157282 -4.745364 23.851196 -5.644589 -4.051673 -21.626780 2.437680 -1.643037 3.260227 -8.276389 2.164489 24.978374 5.571224 4.177058 -25.799496 -9.226209 -1.763401 
-8.356772 52.161049 20.549927 -176.258102 177.941040 1.289723 38.590160 -2.382531 -0.729177 -32.833401 8.329103 -0.621721 -11.487919 -1.801843 1.590744 35.883045 -7.185466 -3.816004 2.656661 -4.973740 1.830115 -67.850044 -18.222281 15.000296 -65.525146 9.447046 14.931352 8.524705 12.647240 -37.415417 -4.438679 -1.473473 2.444106 44.032921 27.424652 -73.140182 77.306404 -7.575610 20.897051 -8.534408 -12.637552 118.597519 3.287094 6.280267 -4.624281 23.913176 -5.635221 -4.064865 -21.638626 2.406396 -1.662166 3.154166 -8.163091 2.224174 25.080044 5.560495 4.203945 -25.752140 -9.252057 -1.754434 
-8.348495 52.156143 20.568018 -176.247818 177.770493 1.222995 38.732151 -2.215806 -0.691849 -33.109970 8.335615 -0.663231 -11.374402 -1.918485 1.419189 35.733849 -7.035231 -4.156635 2.656661 -4.973740 1.830115 -67.890923 -17.821032 15.031105 -65.652046 9.442165 14.983956 8.524705 12.647240 -37.405647 -4.438679 -1.473473 2.444106 44.114639 26.964312 -72.587761 77.329155 -7.573197 20.918234 -8.534408 -12.637552 118.675644 3.201205 6.488805 -4.525527 23.974285 -5.635514 -4.041046 -21.631693 2.359690 -1.679442 3.075078 -7.974181 2.260429 25.170044 5.560788 4.211886 -25.736912 -9.305397 -1.765043 
-8.339602 52.155838 20.594383 -176.267227 177.703781 1.255926 38.778000 -2.101595 -0.775596 -32.972382 8.356484 -0.696974 -11.310974 -2.102205 1.203841 35.224949 -6.810207 -4.435566 2.656661 -4.973740 1.830115 -67.908798 -17.732782 15.126385 -65.896400 9.435665 15.097241 8.524705 12.647240 -37.259171 -4.438679 -1.473473 2.444106 44.116768 27.071716 -72.773300 77.248489 -7.596674 20.860350 -8.534408 -12.637552 117.747910 3.064948 6.586950 -4.524511 24.055950 -5.624843 -4.076045 -21.585255 2.318789 -1.705457 2.997787 -7.887732 2.198777 25.269724 5.561067 4.230416 -25.771141 -9.288166 -1.779041 
-8.338070 52.155533 20.620750 -176.316193 177.768417 1.210590 38.956207 -2.142501 -0.893097 -33.179855 8.361588 -0.738268 -11.051355 -2.168350 0.934176 34.522087 -6.751641 -4.846095 2.656661 -4.973740 1.830115 -67.914772 -17.547087 15.126702 -65.961060 9.437183 15.143030 8.524705 12.647240 -37.268932 -4.438679 -1.473473 2.444106 44.095814 27.032974 -72.921028 77.159988 -7.627364 20.820229 -8.534408 -12.637552 116.751808 2.978052 6.512372 -4.588821 24.115755 -5.625210 -4.091102 -21.592316 2.362876 -1.678189 2.851488 -7.976323 2.160886 25.373831 5.540891 4.235914 -25.708517 -9.196597 -1.712270 
-8.338683 52.138054 20.644053 -176.325775 177.732727 1.114635 39.208721 -2.091177 -0.907191 -33.446121 8.350497 -0.765074 -10.819787 -2.149456 0.679548 33.851166 -6.751620 -5.212765 2.656661 -4.973740 1.830115 -67.951744 -17.429173 15.000948 -65.918938 9.438844 15.119430 8.524705 12.647240 -37.337292 -4.438679 -1.473473 2.444106 44.094269 26.954863 -72.979630 77.180313 -7.620832 20.822512 -8.534408 -12.637552 115.990097 2.947970 6.539079 -4.566165 24.157927 -5.615757 -4.092780 -21.640862 2.367739 -1.663043 2.763770 -7.967121 2.140312 25.423409 5.541412 4.250110 -25.605303 -9.023961 -1.631910 
-8.331632 52.127632 20.671339 -176.335464 177.712418 1.105752 39.481495 -2.048688 -0.947979 -33.674366 8.395205 -0.809111 -10.763457 -2.310577 0.618023 33.205284 -6.642780 -5.183287 2.656661 -4.973740 1.830115 -67.978447 -17.291918 15.038007 -66.013870 9.434089 15.157923 8.524705 12.647240 -37.356827 -4.438679 -1.473473 2.444106 44.053146 26.916443 -73.275085 77.239685 -7.601498 20.858902 -8.534408 -12.637552 115.111183 2.926309 6.584147 -4.601131 24.175665 -5.629466 -4.077772 -21.674595 2.294838 -1.696284 2.675720 -7.938001 2.173456 25.503729 5.541375 4.247390 -25.635069 -9.027514 -1.638502 
-8.322128 52.139286 20.694332 -176.325394 177.636887 0.993582 39.744694 -2.030692 -0.844123 -33.813404 8.427970 -0.806479 -10.456774 -2.669675 0.399097 32.779949 -5.733460 -5.342193 2.656661 -4.973740 1.830115 -67.968185 -17.272577 15.125603 -66.034920 9.433205 15.169734 8.524705 12.647240 -37.366589 -4.438679 -1.473473 2.444106 43.970726 26.829830 -73.548149 77.230873 -7.606319 20.857454 -8.534408 -12.637552 114.251808 2.890630 6.668529 -4.602486 24.185980 -5.625222 -4.097251 -21.679783 2.371545 -1.660110 2.596670 -7.837486 2.369126 25.553041 5.541594 4.271237 -25.668756 -9.121596 -1.681197 
-8.316915 52.145409 20.713648 -176.403534 177.665344 0.841712 39.844624 -2.092106 -0.819966 -33.745605 8.478704 -0.796962 -10.735152 -2.966637 0.303226 32.486294 -5.556785 -5.459960 2.656661 -4.973740 1.830115 -67.961197 -17.409458 15.157496 -65.918938 9.438844 15.119430 8.524705 12.647240 -37.317760 -4.438679 -1.473473 2.444106 43.978325 26.702734 -73.381516 77.317841 -7.573769 20.897902 -8.534408 -12.637552 113.929550 2.793154 6.630384 -4.633778 24.165945 -5.625090 -4.095468 -21.720345 2.502252 -1.601489 2.422171 -7.879526 2.422919 25.602972 5.541871 4.275671 -25.657604 -8.953835 -1.602485 
-8.315077 52.135910 20.718554 -176.471909 177.679031 0.759747 39.804932 -2.068022 -0.860888 -33.469589 8.495639 -0.789267 -11.048065 -2.923783 0.275362 32.149712 -5.518240 -5.323658 2.656661 -4.973740 1.830115 -67.925652 -17.595718 15.136762 -65.801392 9.440076 15.058824 8.524705 12.647240 -37.278694 -4.438679 -1.473473 2.444106 44.085793 26.525244 -72.964531 77.466003 -7.524987 20.993694 -8.534408 -12.637552 113.646339 2.772735 6.618493 -4.625591 24.166206 -5.625344 -4.085801 -21.813354 2.426607 -1.624050 2.294368 -7.926413 2.271668 25.695427 5.530949 4.272433 -25.606384 -8.848770 -1.550739 
